# xmcd
#
# Track frame offsets: 
#        150
#        15205
#        28519
#        41667
#        53874
#        66832
#        80212
#        93469
#        107472
#        120824
#        134749
#        146717
#        159263
#        172355
#        186255
#        199366
#        210328
#        223112
#        237136
#        250317
#        266170
#        279496
#        292191
#        304951
#        317373
#
# Disc length: 4423 seconds
#
# Revision: 0
# Processed by: cddbd v1.5.2PL0 Copyright (c) Steve Scherf et al.
# Submitted via: ExactAudioCopy v0.99pb5
#
DISCID=79114519
DTITLE=Various Artist - Ramblers, Gamblers, Vagabonds and Revelers - CD3
DYEAR=1948
DGENRE=Blues
TTITLE0=Carolina Tar Heels - Rude And Rambling Man (1929)
TTITLE1=Big Joe Turner - Born To Gamble (1948)
TTITLE2=Riverside Ramblers - Wondering (1937)
TTITLE3=Red Foley - Playin' Dominoes And Shootin' Dice (1953)
TTITLE4=Tommy McClenan - New Highway No.51 (1940)
TTITLE5=Joe Werner and The Ramblers - Crap Shooters Hop (1938)
TTITLE6=Prince Albert Hunt's Texas Ramblers - Traveling Man (1928)
TTITLE7=Darby and Tarlton - Gamblin' Jim (1928)
TTITLE8=Kokomo Arnold - Traveling Rambler Blues (1935)
TTITLE9=Hank Williams - Ramblin' Man (1951)
TTITLE10=Rayne-Bo Ramblers - Rayne Breakdown (1935)
TTITLE11=Blind Lemon Jefferson - Jack O'Diamond Blues (1926)
TTITLE12=Leake County Revelers - Dry Town Blues (1929)
TTITLE13=Memphis Slim and The Vagabonds - I Guess I'm A Fool (1950)
TTITLE14=Jelly Roll Morton - Gambling Jack (1930)
TTITLE15=Cecil Campbell and The Tennessee Ramblers - Steel Guitar Hop (1
TTITLE15=947)
TTITLE16=Clarence 'Gatemouth' Brown - Boogie Rambler (1950)
TTITLE17=Bessie Smith - Reckless Blues (1925)
TTITLE18=Prince Albert Hunt's Texas Ramblers - Wake Up Jacob (1929)
TTITLE19=Jimmie Rodgers - Gambling Bar Room Blues (1933)
TTITLE20=Henry Townsend - A Ramblin' Mind (1937)
TTITLE21=Champion Jack Dupree - Gamblin' Man Blues (1940)
TTITLE22=Black Ace - Black Ace (1937)
TTITLE23=Rambling Bob (Robert Lee McCoy) - Next Door Neighbor (1938)
TTITLE24=Leake County Revelers - Leather Breeches (1927)
EXTD=
EXTT0=
EXTT1=
EXTT2=
EXTT3=
EXTT4=
EXTT5=
EXTT6=
EXTT7=
EXTT8=
EXTT9=
EXTT10=
EXTT11=
EXTT12=
EXTT13=
EXTT14=
EXTT15=
EXTT16=
EXTT17=
EXTT18=
EXTT19=
EXTT20=
EXTT21=
EXTT22=
EXTT23=
EXTT24=
PLAYORDER=
